# xmcd
#
# Track frame offsets:
#	150
#	16731
#	29580
#	46584
#	61474
#
# Disc length: 997 seconds
# Revision: 0
# Processed by: cddbd v1.5.2PL0 Copyright (c) Steve Scherf et al.
# Submitted via: dBpowerAMP V12.0
#
DISCID=3403e305
DTITLE=A Place To Bury Strangers - Onwards To The Wall
DYEAR=2012
DGENRE=Shoegaze
TTITLE0=I Lost You
TTITLE1=So Far Away
TTITLE2=Onwards To The Wall
TTITLE3=Nothing Will Surprise Me
TTITLE4=Drill It Up
EXTD=
EXTT0=
EXTT1=
EXTT2=
EXTT3=
EXTT4=
PLAYORDER=
